frame=    4 fps=0.0 q=0.0 size=       0kB time=00:00:00.00 bitrate=N/A    frame=    6 fps=6.0 q=0.0 size=       0kB time=00:00:00.00 bitrate=N/A    frame=   10 fps=6.6 q=0.0 size=       0kB time=00:00:00.00 bitrate=N/A    frame=   13 fps=6.5 q=0.0 size=       0kB time=00:00:00.00 bitrate=N/A    frame=   16 fps=6.4 q=0.0 size=       0kB time=00:00:00.00 bitrate=N/A    frame=   19 fps=6.2 q=0.0 size=       0kB time=00:00:00.00 bitrate=N/A    frame=   22 fps=6.2 q=0.0 size=       0kB time=00:00:00.00 bitrate=N/A    frame=   25 fps=6.1 q=0.0 size=       0kB time=00:00:00.00 bitrate=N/A    frame=   27 fps=5.9 q=0.0 size=       0kB time=00:00:00.00 bitrate=N/A    frame=   29 fps=5.7 q=0.0 size=       0kB time=00:00:00.00 bitrate=N/A    frame=   33 fps=5.9 q=0.0 size=       0kB time=00:00:00.00 bitrate=N/A    frame=   36 fps=5.9 q=0.0 size=       0kB time=00:00:00.00 bitrate=N/A    frame=   38 fps=5.8 q=0.0 size=       0kB time=00:00:00.00 bitrate=N/A    frame=   40 fps=5.6 q=0.0 size=       0kB time=00:00:00.00 bitrate=N/A    frame=   42 fps=5.5 q=0.0 size=       0kB time=00:00:00.00 bitrate=N/A    frame=   46 fps=5.7 q=0.0 size=       0kB time=00:00:00.00 bitrate=N/A    frame=   48 fps=5.6 q=0.0 size=       0kB time=00:00:00.00 bitrate=N/A    frame=   51 fps=5.6 q=28.0 size=       0kB time=00:00:00.04 bitrate=   9.6kbits/s    frame=   54 fps=5.6 q=28.0 size=       4kB time=00:00:00.16 bitrate= 206.4kbits/s    frame=   58 fps=5.7 q=28.0 size=       7kB time=00:00:00.32 bitrate= 168.2kbits/s    frame=   61 fps=5.7 q=28.0 size=      11kB time=00:00:00.44 bitrate= 193.2kbits/s    frame=   63 fps=5.7 q=28.0 size=      12kB time=00:00:00.52 bitrate= 184.1kbits/s    frame=   67 fps=5.8 q=28.0 size=      14kB time=00:00:00.68 bitrate= 172.2kbits/s    frame=   71 fps=5.8 q=28.0 size=      18kB time=00:00:00.84 bitrate= 179.6kbits/s    frame=   74 fps=5.8 q=28.0 size=      21kB time=00:00:00.96 bitrate= 173.8kbits/s    frame=   76 fps=5.8 q=28.0 size=      22kB time=00:00:01.04 bitrate= 170.7kbits/s    frame=   80 fps=5.9 q=28.0 size=      26kB time=00:00:01.20 bitrate= 174.0kbits/s    frame=   83 fps=5.9 q=28.0 size=      27kB time=00:00:01.32 bitrate= 169.3kbits/s    frame=   85 fps=5.8 q=28.0 size=      29kB time=00:00:01.41 bitrate= 168.0kbits/s    frame=   87 fps=5.7 q=28.0 size=      30kB time=00:00:01.49 bitrate= 166.2kbits/s    frame=   90 fps=5.7 q=28.0 size=      33kB time=00:00:01.60 bitrate= 170.1kbits/s    frame=   93 fps=5.7 q=28.0 size=      35kB time=00:00:01.72 bitrate= 167.8kbits/s    frame=   94 fps=5.6 q=28.0 size=      36kB time=00:00:01.76 bitrate= 166.5kbits/s    frame=   96 fps=5.6 q=26.0 size=      37kB time=00:00:01.84 bitrate= 164.8kbits/s    frame=   99 fps=5.6 q=28.0 size=      40kB time=00:00:01.96 bitrate= 167.0kbits/s    frame=  102 fps=5.6 q=28.0 size=      42kB time=00:00:02.09 bitrate= 164.8kbits/s    frame=  104 fps=5.6 q=28.0 size=      43kB time=00:00:02.16 bitrate= 164.2kbits/s    frame=  105 fps=5.5 q=28.0 size=      44kB time=00:00:02.20 bitrate= 163.0kbits/s    frame=  108 fps=5.5 q=28.0 size=      46kB time=00:00:02.32 bitrate= 161.6kbits/s    frame=  111 fps=5.5 q=28.0 size=      48kB time=00:00:02.44 bitrate= 161.1kbits/s    frame=  114 fps=5.5 q=28.0 size=      50kB time=00:00:02.56 bitrate= 160.2kbits/s    frame=  116 fps=5.5 q=25.0 size=      51kB time=00:00:02.64 bitrate= 159.3kbits/s    frame=  119 fps=5.5 q=28.0 size=      54kB time=00:00:02.77 bitrate= 160.0kbits/s    frame=  122 fps=5.5 q=28.0 size=      56kB time=00:00:02.88 bitrate= 158.7kbits/s    frame=  125 fps=5.5 q=28.0 size=      58kB time=00:00:03.00 bitrate= 157.9kbits/s    frame=  127 fps=5.5 q=28.0 size=      59kB time=00:00:03.08 bitrate= 157.2kbits/s    frame=  131 fps=5.5 q=28.0 size=      65kB time=00:00:03.24 bitrate= 164.8kbits/s    frame=  135 fps=5.6 q=28.0 size=      75kB time=00:00:03.40 bitrate= 181.0kbits/s    frame=  138 fps=5.6 q=28.0 size=      81kB time=00:00:03.52 bitrate= 187.4kbits/s    frame=  140 fps=5.5 q=28.0 size=      85kB time=00:00:03.60 bitrate= 192.5kbits/s    frame=  145 fps=5.6 q=28.0 size=      90kB time=00:00:03.80 bitrate= 194.0kbits/s    frame=  149 fps=5.7 q=28.0 size=      94kB time=00:00:03.97 bitrate= 193.6kbits/s    frame=  152 fps=5.7 q=28.0 size=      96kB time=00:00:04.08 bitrate= 192.7kbits/s    frame=  155 fps=5.7 q=28.0 size=      99kB time=00:00:04.20 bitrate= 193.4kbits/s    frame=  159 fps=5.7 q=28.0 size=     102kB time=00:00:04.36 bitrate= 191.2kbits/s    frame=  164 fps=5.8 q=28.0 size=     105kB time=00:00:04.56 bitrate= 189.2kbits/s    frame=  165 fps=5.6 q=-1.0 Lsize=     164kB time=00:00:06.61 bitrate= 202.9kbits/s    
